<?xml version="1.0" standalone="no"?>
<!DOCTYPE svg PUBLIC "-//W3C//DTD SVG 20010904//EN"
 "http://www.w3.org/TR/2001/REC-SVG-20010904/DTD/svg10.dtd">
<svg version="1.0" xmlns="http://www.w3.org/2000/svg"
 width="507.000000pt" height="492.000000pt" viewBox="0 0 507.000000 492.000000"
 preserveAspectRatio="xMidYMid meet">
<metadata>
Created by potrace 1.16, written by Peter Selinger 2001-2019
</metadata>
<g transform="translate(0.000000,492.000000) scale(0.100000,-0.100000)"
fill="#000000" stroke="none">
<path d="M2231 4910 c4 -3 -33 -11 -84 -18 -224 -31 -532 -120 -712 -207 -352
-171 -708 -464 -945 -780 -227 -302 -389 -682 -461 -1085 -27 -147 -37 -532
-20 -701 65 -624 362 -1216 816 -1621 189 -170 476 -357 699 -456 99 -44 193
-54 247 -27 59 30 249 233 303 324 54 90 109 241 125 341 12 75 13 376 2 465
-5 33 -7 61 -6 63 1 1 17 -37 35 -85 39 -104 197 -512 283 -734 l61 -156 135
-7 c235 -11 651 -8 651 6 0 18 -183 367 -241 460 -151 241 -279 399 -509 630
l-167 167 256 -173 c141 -95 288 -195 326 -221 39 -26 126 -86 195 -133 249
-171 619 -432 763 -539 54 -40 102 -73 107 -73 40 0 285 215 365 322 51 68 55
89 21 115 -13 10 -84 70 -157 134 -273 235 -512 416 -743 561 -162 102 -513
278 -728 364 -80 32 -145 60 -144 62 2 1 97 -20 212 -48 623 -150 1192 -299
1783 -466 107 -30 198 -51 202 -47 4 4 22 44 39 88 76 190 130 375 130 448 0
37 -1 38 -67 68 -90 41 -419 151 -563 188 -395 101 -1035 179 -1504 182 l-131
1 125 23 c297 56 928 167 1080 190 245 39 873 144 970 163 l85 17 3 43 c6 82
-65 367 -138 558 -49 130 -22 122 -276 80 -521 -87 -785 -140 -1014 -203 -640
-175 -1062 -407 -1400 -768 -41 -44 -78 -81 -81 -83 -7 -3 -43 158 -67 303
-12 76 -16 166 -16 375 0 238 2 292 21 400 96 552 326 1004 700 1378 62 62
113 115 113 118 0 4 -155 5 -344 3 -189 -2 -340 -6 -335 -9z m-923 -1042 c45
-28 75 -93 70 -156 -3 -45 -1 -48 35 -65 57 -28 82 -71 82 -139 0 -69 -21
-103 -86 -136 -43 -22 -57 -23 -123 -6 l-26 6 0 -91 0 -91 40 0 40 0 0 -40 0
-40 -40 0 -41 0 3 -72 3 -73 38 -3 c35 -3 37 -5 37 -38 0 -33 -1 -34 -40 -34
l-40 0 0 -550 0 -550 45 0 45 0 0 80 0 80 55 0 c64 0 105 -16 105 -42 0 -14
-8 -18 -40 -18 l-40 0 0 -49 c0 -45 2 -49 31 -57 40 -11 61 -40 39 -54 -8 -5
-25 -10 -36 -10 -14 0 -24 -8 -28 -23 -11 -43 -6 -57 28 -74 28 -13 56 -47 56
-68 0 -3 -39 -5 -86 -5 -81 0 -85 1 -79 20 4 11 3 50 0 85 l-7 65 -44 0 -44 0
0 -85 0 -85 -40 0 -40 0 0 670 0 670 -40 0 c-39 0 -40 1 -40 34 0 33 2 35 38
38 l37 3 3 73 3 72 -41 0 -40 0 0 40 0 40 40 0 40 0 0 91 0 91 -26 -6 c-66
-17 -80 -16 -124 6 -118 60 -122 211 -7 273 36 20 37 21 37 80 0 70 22 114 72
145 46 28 129 27 176 -2z"/>
<path d="M1180 3787 c-14 -7 -31 -26 -39 -42 -12 -25 -12 -32 0 -54 23 -41 60
-57 96 -42 29 12 53 46 53 76 0 19 -41 62 -65 69 -11 3 -31 0 -45 -7z"/>
<path d="M1047 3568 c-42 -32 -38 -94 7 -123 54 -36 126 17 110 80 -12 48 -78
72 -117 43z"/>
<path d="M1292 3557 c-12 -13 -22 -36 -22 -51 0 -34 41 -76 75 -76 33 0 75 41
75 73 0 67 -83 102 -128 54z"/>
<path d="M3358 4761 c-104 -41 -308 -198 -437 -337 -149 -160 -285 -380 -331
-533 -27 -93 -48 -204 -40 -225 5 -16 7 -16 21 1 9 10 31 41 49 68 172 257
460 517 727 653 163 83 359 142 472 142 105 0 73 36 -119 134 -137 70 -248
116 -277 116 -10 -1 -39 -9 -65 -19z"/>
</g>
</svg>
